<?xml version="1.0" encoding="UTF-8" standalone="no"?>
<!-- Created with Inkscape (http://www.inkscape.org/) -->

<svg
   xmlns:dc="http://purl.org/dc/elements/1.1/"
   xmlns:cc="http://creativecommons.org/ns#"
   xmlns:rdf="http://www.w3.org/1999/02/22-rdf-syntax-ns#"
   xmlns:svg="http://www.w3.org/2000/svg"
   xmlns="http://www.w3.org/2000/svg"
   xmlns:sodipodi="http://sodipodi.sourceforge.net/DTD/sodipodi-0.dtd"
   xmlns:inkscape="http://www.inkscape.org/namespaces/inkscape"
   version="1.1"
   id="svg19041"
   xml:space="preserve"
   width="666.66669"
   height="666.66669"
   viewBox="0 0 666.66669 666.66669"
   sodipodi:docname="I-love-Venezuela-publicdomainvectors.org.svg"
   inkscape:version="0.92.4 (5da689c313, 2019-01-14)"><metadata
     id="metadata19047"><rdf:RDF><cc:Work
         rdf:about=""><dc:format>image/svg+xml</dc:format><dc:type
           rdf:resource="http://purl.org/dc/dcmitype/StillImage" /><dc:title></dc:title></cc:Work></rdf:RDF></metadata><defs
     id="defs19045"><clipPath
       clipPathUnits="userSpaceOnUse"
       id="clipPath19057"><path
         d="M 0,500 H 500 V 0 H 0 Z"
         id="path19055"
         inkscape:connector-curvature="0" /></clipPath></defs><sodipodi:namedview
     pagecolor="#ffffff"
     bordercolor="#666666"
     borderopacity="1"
     objecttolerance="10"
     gridtolerance="10"
     guidetolerance="10"
     inkscape:pageopacity="0"
     inkscape:pageshadow="2"
     inkscape:window-width="1920"
     inkscape:window-height="1018"
     id="namedview19043"
     showgrid="false"
     inkscape:zoom="1.1926428"
     inkscape:cx="449.15256"
     inkscape:cy="353.10736"
     inkscape:window-x="-8"
     inkscape:window-y="-8"
     inkscape:window-maximized="1"
     inkscape:current-layer="g19049" /><g
     id="g19049"
     inkscape:groupmode="layer"
     inkscape:label="I-love-Venezuela-publicdomainvectors.org"
     transform="matrix(1.3333333,0,0,-1.3333333,0,666.66667)"><g
       id="g19051"><g
         id="g19053"
         clip-path="url(#clipPath19057)"><path
           d="m 457.825,360.648 c 0.875,0.528 1.36,1.458 1.36,2.411 0,0.486 -0.126,0.98 -0.392,1.429 -0.785,1.328 -2.493,1.777 -3.829,1.006 0,0 -33.749,-19.486 -78.944,-45.578 h 14.388 c 32.696,19.754 67.417,40.732 67.417,40.732"
           style="fill:#ffcc00;fill-opacity:1;fill-rule:nonzero;stroke:none"
           id="path19059"
           inkscape:connector-curvature="0" /><path
           d="m 234.79,354.513 c 0.835,0.537 1.293,1.444 1.293,2.37 0,0.5 -0.132,1.005 -0.411,1.462 -0.795,1.305 -2.486,1.737 -3.81,0.973 0,0 -34.433,-19.881 -68.245,-39.402 h 17.271 c 29.811,19.134 53.902,34.597 53.902,34.597"
           style="fill:#ffcc00;fill-opacity:1;fill-rule:nonzero;stroke:none"
           id="path19061"
           inkscape:connector-curvature="0" /><path
           d="m 451.207,347.86 c 0.877,0.528 1.363,1.458 1.363,2.413 0,0.485 -0.126,0.977 -0.39,1.427 -0.784,1.329 -2.493,1.779 -3.83,1.007 0,0 -29.119,-16.811 -56.797,-32.791 h 13.254 c 19.596,11.801 46.4,27.944 46.4,27.944"
           style="fill:#ffcc00;fill-opacity:1;fill-rule:nonzero;stroke:none"
           id="path19063"
           inkscape:connector-curvature="0" /><path
           d="m 237.017,366.86 c 0.844,0.535 1.308,1.446 1.308,2.379 0,0.496 -0.132,0.999 -0.407,1.454 -0.793,1.31 -2.488,1.745 -3.814,0.979 0,0 -44.454,-25.665 -88.666,-51.191 38.517,24.856 77.842,50.234 77.842,50.234 0.833,0.537 1.289,1.442 1.289,2.368 0,0.5 -0.133,1.006 -0.413,1.463 -0.655,1.072 -1.913,1.548 -3.075,1.261 0.476,0.523 0.738,1.199 0.738,1.893 0,0.489 -0.128,0.984 -0.396,1.435 -0.787,1.323 -2.491,1.769 -3.825,0.999 0,0 -13.06,-7.54 -15.541,-8.972 4.128,2.551 20.458,12.645 20.458,12.645 0.86,0.532 1.335,1.452 1.335,2.396 0,0.491 -0.129,0.989 -0.399,1.441 -0.789,1.319 -2.491,1.762 -3.822,0.993 0,0 -46.716,-26.971 -93.419,-53.935 38.488,24.918 77.585,50.231 77.585,50.231 0.831,0.537 1.286,1.441 1.286,2.364 0,0.501 -0.135,1.008 -0.415,1.466 -0.796,1.301 -2.485,1.731 -3.807,0.968 0,0 -30.56,-17.645 -52.976,-30.586 26.842,16.969 60.096,37.993 60.096,37.993 0.846,0.535 1.311,1.447 1.311,2.381 0,0.496 -0.131,0.998 -0.406,1.453 -0.793,1.311 -2.488,1.747 -3.815,0.981 0,0 -15.626,-9.022 -19.609,-11.322 1.928,1.198 13.012,8.082 13.012,8.082 0.856,0.533 1.329,1.452 1.329,2.393 0,0.492 -0.129,0.991 -0.401,1.443 -0.789,1.318 -2.489,1.759 -3.82,0.991 0,0 -38.559,-22.262 -76.352,-44.082 36.105,23.439 73.038,47.414 73.038,47.414 0.828,0.538 1.282,1.44 1.282,2.362 0,0.502 -0.134,1.009 -0.415,1.468 -0.797,1.3 -2.485,1.729 -3.806,0.966 0,0 -31.033,-17.916 -57.518,-33.207 18.595,11.949 43.817,28.155 43.817,28.155 0.835,0.536 1.293,1.442 1.293,2.369 0,0.5 -0.133,1.005 -0.412,1.462 -0.795,1.305 -2.486,1.736 -3.809,0.972 0,0 -21.914,-12.652 -36.429,-21.033 10.597,6.856 29.186,18.884 29.186,18.884 0.83,0.537 1.285,1.44 1.285,2.364 0,0.501 -0.134,1.008 -0.413,1.466 -0.797,1.302 -2.486,1.732 -3.807,0.968 0,0 -25.817,-14.905 -50.601,-29.214 18.02,12.217 38.49,26.097 38.49,26.097 0.801,0.543 1.236,1.428 1.236,2.331 0,0.51 -0.14,1.028 -0.43,1.491 -0.804,1.284 -2.48,1.7 -3.791,0.943 0,0 -26.396,-15.239 -52.735,-30.445 17.526,12.57 35.658,25.574 35.658,25.574 0.763,0.548 1.174,1.411 1.174,2.289 0,0.523 -0.146,1.052 -0.45,1.523 -0.813,1.26 -2.472,1.661 -3.771,0.911 0,0 -15.058,-8.693 -30.071,-17.361 7.214,5.753 15.843,12.635 15.843,12.635 0.694,0.553 1.06,1.371 1.06,2.201 0,0.548 -0.16,1.1 -0.49,1.583 -0.829,1.217 -2.456,1.588 -3.731,0.852 l -32.285,-18.64 c -1.345,-0.777 -1.806,-2.498 -1.029,-3.843 0.753,-1.305 2.39,-1.764 3.716,-1.082 -7.277,-5.805 -15.938,-12.712 -15.938,-12.712 -0.694,-0.553 -1.06,-1.372 -1.06,-2.202 0,-0.547 0.16,-1.1 0.49,-1.583 0.829,-1.216 2.456,-1.588 3.731,-0.852 0,0 8.799,5.081 13.184,7.613 -17.518,-12.565 -35.644,-25.566 -35.644,-25.566 -0.764,-0.548 -1.175,-1.41 -1.175,-2.288 0,-0.524 0.146,-1.053 0.45,-1.524 0.813,-1.259 2.472,-1.661 3.771,-0.911 0,0 19.125,11.041 34.68,20.022 -18.034,-12.228 -38.513,-26.113 -38.513,-26.113 -0.8,-0.543 -1.235,-1.427 -1.235,-2.331 0,-0.51 0.139,-1.027 0.43,-1.491 0.804,-1.283 2.48,-1.7 3.791,-0.943 0,0 15.262,8.811 21.855,12.619 -10.594,-6.855 -29.182,-18.881 -29.182,-18.881 -0.83,-0.538 -1.285,-1.441 -1.285,-2.365 0,-0.501 0.133,-1.008 0.413,-1.465 0.797,-1.303 2.486,-1.732 3.807,-0.969 0,0 19.524,11.272 30.063,17.357 -16.26,-10.449 -37.62,-24.173 -42.662,-27.412 H 41.657 C 54.101,327.1 76.874,340.249 98.805,352.91 80.414,340.97 61.813,328.895 47.98,319.916 h 26.256 c 4.239,2.448 8.422,4.863 12.291,7.096 -3.656,-2.31 -7.431,-4.697 -11.225,-7.096 h 15.89 c 5.558,3.209 11.224,6.48 16.875,9.743 -5.036,-3.261 -10.081,-6.527 -15.049,-9.743 h 69.953 c 37.029,23.476 74.046,46.944 74.046,46.944"
           style="fill:#ffcc00;fill-opacity:1;fill-rule:nonzero;stroke:none"
           id="path19065"
           inkscape:connector-curvature="0" /><path
           d="m 458.826,320.221 c 0,0 -0.185,-0.107 -0.529,-0.305 h 3.755 c -0.882,0.751 -2.167,0.917 -3.226,0.305"
           style="fill:#ffcc00;fill-opacity:1;fill-rule:nonzero;stroke:none"
           id="path19067"
           inkscape:connector-curvature="0" /><path
           d="m 459.28,325.633 c 0.863,0.532 1.34,1.454 1.34,2.4 0,0.49 -0.129,0.986 -0.397,1.438 -0.788,1.321 -2.492,1.765 -3.824,0.995 0,0 -7.599,-4.386 -18.275,-10.55 h 11.864 c 5.939,3.654 9.292,5.717 9.292,5.717"
           style="fill:#ffcc00;fill-opacity:1;fill-rule:nonzero;stroke:none"
           id="path19069"
           inkscape:connector-curvature="0" /><path
           d="m 475.221,320.813 c 0,0 -0.546,-0.315 -1.555,-0.897 h 5.305 c -0.815,1.239 -2.454,1.645 -3.75,0.897"
           style="fill:#ffcc00;fill-opacity:1;fill-rule:nonzero;stroke:none"
           id="path19071"
           inkscape:connector-curvature="0" /><path
           d="m 458.209,333.453 c 0.875,0.528 1.359,1.458 1.359,2.411 0,0.486 -0.126,0.979 -0.391,1.428 -0.784,1.329 -2.492,1.777 -3.829,1.005 0,0 -12.978,-7.492 -31.84,-18.381 h 12.291 c 12.852,7.763 22.41,13.537 22.41,13.537"
           style="fill:#ffcc00;fill-opacity:1;fill-rule:nonzero;stroke:none"
           id="path19073"
           inkscape:connector-curvature="0" /><path
           d="m 422.744,394.338 c 0.867,0.53 1.347,1.454 1.347,2.403 0,0.489 -0.128,0.984 -0.396,1.435 -0.787,1.324 -2.492,1.769 -3.825,0.999 0,0 -70.303,-40.589 -132.797,-76.67 53.879,32.736 117.8,71.572 117.8,71.572 0.87,0.529 1.353,1.457 1.353,2.407 0,0.488 -0.127,0.982 -0.394,1.432 -0.785,1.326 -2.492,1.773 -3.827,1.002 0,0 -70.744,-40.844 -136.838,-79.002 h 35.823 c 63.03,38.526 121.754,74.422 121.754,74.422"
           style="fill:#ffcc00;fill-opacity:1;fill-rule:nonzero;stroke:none"
           id="path19075"
           inkscape:connector-curvature="0" /><path
           d="m 455.006,371.099 c 0.865,0.53 1.344,1.455 1.344,2.402 0,0.49 -0.128,0.985 -0.396,1.436 -0.787,1.323 -2.492,1.768 -3.825,0.998 0,0 -38.505,-22.23 -51.256,-29.592 7.52,4.505 37.707,22.592 37.707,22.592 0.88,0.527 1.368,1.459 1.368,2.416 0,0.485 -0.125,0.977 -0.388,1.424 -0.784,1.332 -2.495,1.783 -3.832,1.011 0,0 -42.162,-24.342 -93.306,-53.87 h 29.045 c 47.51,29.108 83.539,51.183 83.539,51.183"
           style="fill:#ffcc00;fill-opacity:1;fill-rule:nonzero;stroke:none"
           id="path19077"
           inkscape:connector-curvature="0" /><path
           d="m 424.226,383.793 c 0.866,0.53 1.345,1.455 1.345,2.403 0,0.489 -0.128,0.984 -0.395,1.435 -0.787,1.324 -2.492,1.769 -3.825,0.999 0,0 -57.346,-33.108 -119.018,-68.714 h 17.508 c 55.19,33.773 104.385,63.877 104.385,63.877"
           style="fill:#ffcc00;fill-opacity:1;fill-rule:nonzero;stroke:none"
           id="path19079"
           inkscape:connector-curvature="0" /><path
           d="m 239.605,345.333 c 0.847,0.535 1.313,1.448 1.313,2.382 0,0.495 -0.131,0.997 -0.406,1.452 -0.792,1.312 -2.488,1.749 -3.815,0.982 0,0 -23.174,-13.379 -52.368,-30.233 h 15.005 c 21.679,13.682 40.271,25.417 40.271,25.417"
           style="fill:#ffcc00;fill-opacity:1;fill-rule:nonzero;stroke:none"
           id="path19081"
           inkscape:connector-curvature="0" /><path
           d="m 249.268,340.864 c 0.854,0.532 1.327,1.45 1.327,2.39 0,0.494 -0.131,0.993 -0.403,1.446 -0.789,1.316 -2.489,1.757 -3.819,0.989 0,0 -20.447,-11.806 -44.639,-25.773 h 13.896 c 15.846,9.869 33.638,20.948 33.638,20.948"
           style="fill:#ffcc00;fill-opacity:1;fill-rule:nonzero;stroke:none"
           id="path19083"
           inkscape:connector-curvature="0" /><path
           d="m 260.913,339.005 c 0.85,0.535 1.318,1.449 1.318,2.385 0,0.495 -0.13,0.996 -0.404,1.45 -0.792,1.314 -2.489,1.751 -3.817,0.985 0,0 -21.65,-12.5 -41.41,-23.909 h 13.941 c 17.478,10.985 30.372,19.089 30.372,19.089"
           style="fill:#ffcc00;fill-opacity:1;fill-rule:nonzero;stroke:none"
           id="path19085"
           inkscape:connector-curvature="0" /><path
           d="m 395.611,399.5 c 0.868,0.53 1.349,1.456 1.349,2.405 0,0.489 -0.127,0.984 -0.395,1.433 -0.786,1.326 -2.492,1.772 -3.826,1.001 0,0 -19.257,-11.117 -22.073,-12.743 2.915,1.746 22.384,13.411 22.384,13.411 0.879,0.528 1.367,1.46 1.367,2.416 0,0.486 -0.125,0.977 -0.389,1.425 -0.783,1.331 -2.494,1.782 -3.832,1.01 0,0 -74.698,-43.128 -155.782,-89.942 h 30.712 C 327.74,358.105 395.611,399.5 395.611,399.5"
           style="fill:#ffcc00;fill-opacity:1;fill-rule:nonzero;stroke:none"
           id="path19087"
           inkscape:connector-curvature="0" /><path
           d="m 470.752,351.185 c 0.869,0.529 1.35,1.456 1.35,2.405 0,0.489 -0.127,0.984 -0.395,1.434 -0.785,1.325 -2.492,1.77 -3.826,1 0,0 -35.818,-20.679 -62.542,-36.108 h 14.102 c 29.601,18.039 51.311,31.269 51.311,31.269"
           style="fill:#ffcc00;fill-opacity:1;fill-rule:nonzero;stroke:none"
           id="path19089"
           inkscape:connector-curvature="0" /><path
           d="m 447.403,385.946 c 0.867,0.53 1.346,1.455 1.346,2.402 0,0.489 -0.128,0.985 -0.395,1.436 -0.788,1.323 -2.493,1.768 -3.826,0.998 0,0 -57.568,-33.237 -122.745,-70.866 h 17.769 c 58.716,35.948 107.851,66.03 107.851,66.03"
           style="fill:#ffcc00;fill-opacity:1;fill-rule:nonzero;stroke:none"
           id="path19091"
           inkscape:connector-curvature="0" /><path
           d="m 450.804,216.177 c 0.843,0.535 1.307,1.445 1.307,2.379 0,0.496 -0.132,0.998 -0.407,1.455 -0.794,1.308 -2.488,1.744 -3.814,0.978 0,0 -9.557,-5.517 -23.586,-13.619 h 12.622 c 8.396,5.328 13.878,8.807 13.878,8.807"
           style="fill:#00247d;fill-opacity:1;fill-rule:nonzero;stroke:none"
           id="path19093"
           inkscape:connector-curvature="0" /><path
           d="m 459.356,232.384 c 0.847,0.535 1.314,1.447 1.314,2.383 0,0.496 -0.132,0.998 -0.406,1.451 -0.792,1.312 -2.489,1.75 -3.816,0.982 0,0 -32.485,-18.754 -51.668,-29.83 h 14.929 c 22.893,14.443 39.647,25.014 39.647,25.014"
           style="fill:#00247d;fill-opacity:1;fill-rule:nonzero;stroke:none"
           id="path19095"
           inkscape:connector-curvature="0" /><path
           d="m 459.612,241.149 c 0.864,0.532 1.34,1.454 1.34,2.399 0,0.49 -0.128,0.988 -0.397,1.439 -0.787,1.321 -2.491,1.766 -3.824,0.996 0,0 -32.79,-18.931 -66.877,-38.613 h 14.839 c 21.012,12.924 54.919,33.779 54.919,33.779"
           style="fill:#00247d;fill-opacity:1;fill-rule:nonzero;stroke:none"
           id="path19097"
           inkscape:connector-curvature="0" /><path
           d="m 380.975,266.4 c 31.657,19.21 80.717,48.979 80.717,48.979 0.871,0.529 1.355,1.456 1.355,2.408 0,0.487 -0.127,0.981 -0.393,1.43 -0.163,0.276 -0.372,0.502 -0.602,0.699 h -3.755 c -6.431,-3.712 -71.423,-41.235 -134.506,-77.655 52.076,32.045 105.248,64.764 126.197,77.655 h -11.864 c -15.659,-9.041 -37.938,-21.904 -52.561,-30.346 14.119,8.528 34.612,20.908 50.236,30.346 H 423.508 C 401.93,307.458 372.65,290.554 346.28,275.33 c 24.977,15.221 51.234,31.222 73.161,44.586 h -14.102 c -4.641,-2.679 -9.01,-5.202 -12.866,-7.428 3.392,2.043 7.659,4.612 12.334,7.428 h -13.254 c -9.105,-5.256 -18.053,-10.423 -25.759,-14.872 7.626,4.607 16.051,9.698 24.614,14.872 H 376.02 c -24.161,-13.949 -51.588,-29.784 -78.888,-45.544 25.613,15.692 51.32,31.443 74.335,45.544 h -29.045 c -16.234,-9.374 -33.371,-19.267 -50.357,-29.073 16.014,9.804 32.079,19.64 47.487,29.073 h -17.769 c -11.316,-6.534 -22.86,-13.199 -34.374,-19.846 10.826,6.625 21.74,13.304 32.432,19.846 h -17.508 c -8.037,-4.641 -16.147,-9.323 -24.215,-13.98 7.623,4.659 15.279,9.338 22.872,13.98 h -35.823 c -0.261,-0.151 -0.522,-0.302 -0.784,-0.454 0.247,0.152 0.495,0.303 0.743,0.454 h -30.712 c -15.796,-9.12 -31.833,-18.379 -47.608,-27.487 14.815,9.311 30.573,19.215 43.735,27.487 H 216.6 c -4.641,-2.68 -9.178,-5.299 -13.306,-7.682 3.68,2.291 7.933,4.939 12.336,7.682 h -13.896 c -9.15,-5.283 -18.835,-10.874 -28.152,-16.254 8.443,5.33 17.33,10.938 25.752,16.254 h -15.005 c -10.871,-6.277 -22.578,-13.036 -34.234,-19.765 10.447,6.706 20.933,13.436 30.793,19.765 h -17.271 c -2.42,-1.397 -4.837,-2.792 -7.237,-4.178 2.191,1.388 4.391,2.783 6.591,4.178 H 93.018 C 60.021,298.552 30.487,279.431 30.487,279.431 c -0.83,-0.537 -1.285,-1.44 -1.285,-2.364 0,-0.501 0.134,-1.008 0.414,-1.466 0.797,-1.302 2.486,-1.731 3.807,-0.968 0,0 20.327,11.736 26.89,15.525 -4.13,-2.553 -20.462,-12.649 -20.462,-12.649 -0.861,-0.531 -1.335,-1.452 -1.335,-2.396 0,-0.491 0.129,-0.988 0.399,-1.441 0.529,-0.885 1.469,-1.374 2.433,-1.368 -0.17,-0.104 -3.963,-2.425 -3.963,-2.425 -0.867,-0.53 -1.345,-1.455 -1.345,-2.403 0,-0.489 0.127,-0.984 0.395,-1.435 0.787,-1.324 2.491,-1.769 3.825,-0.999 0,0 42.468,24.52 84.439,48.752 -38.51,-24.852 -77.831,-50.227 -77.831,-50.227 -0.832,-0.537 -1.288,-1.442 -1.288,-2.367 0,-0.5 0.133,-1.006 0.413,-1.464 0.796,-1.303 2.486,-1.734 3.807,-0.97 0,0 37.045,21.388 69.491,40.121 C 80.2,274.104 38.655,247.765 38.655,247.765 c -0.843,-0.534 -1.307,-1.446 -1.307,-2.379 0,-0.496 0.131,-0.998 0.407,-1.453 0.793,-1.311 2.488,-1.746 3.813,-0.981 0,0 44.995,25.978 89.512,51.68 C 89.064,267.664 46.417,240.29 46.417,240.29 c -0.836,-0.537 -1.294,-1.443 -1.294,-2.371 0,-0.498 0.132,-1.004 0.411,-1.461 0.795,-1.305 2.486,-1.736 3.81,-0.973 0,0 36.278,20.946 66.571,38.434 -30.211,-19.067 -66.072,-41.701 -66.072,-41.701 -0.847,-0.535 -1.313,-1.447 -1.313,-2.383 0,-0.494 0.131,-0.996 0.406,-1.451 0.792,-1.313 2.488,-1.748 3.815,-0.983 0,0 31.198,18.012 50.467,29.139 -16.932,-10.545 -45.99,-28.643 -45.99,-28.643 -0.855,-0.531 -1.327,-1.449 -1.327,-2.39 0,-0.492 0.13,-0.992 0.401,-1.444 0.79,-1.318 2.49,-1.757 3.82,-0.99 0,0 38.457,22.203 70.76,40.855 -34.477,-21.669 -74.09,-46.566 -74.09,-46.566 -0.849,-0.533 -1.316,-1.447 -1.316,-2.384 0,-0.495 0.13,-0.995 0.404,-1.45 0.791,-1.312 2.489,-1.75 3.817,-0.984 0,0 27.036,15.609 32.886,18.986 -2.856,-1.711 -22.147,-13.269 -22.147,-13.269 -0.88,-0.528 -1.368,-1.459 -1.368,-2.416 0,-0.485 0.125,-0.977 0.389,-1.424 0.783,-1.332 2.494,-1.783 3.832,-1.01 0,0 63.894,36.887 119.953,69.254 C 143.142,252.107 89.501,219.392 69.793,207.37 h 11.695 c 23.165,13.375 66.649,38.481 105.523,60.924 C 150.538,246.136 109.472,221.185 86.738,207.37 h 12.171 c 29.674,17.133 79.848,46.101 129.252,74.625 C 181.35,253.381 133.313,224.019 106.077,207.37 h 12.575 c 28.508,16.459 72.104,41.631 114.848,66.308 -40.276,-24.648 -81.773,-50.04 -108.355,-66.308 h 12.96 c 30.624,17.682 75.553,43.622 120.097,69.339 -41.547,-25.437 -83.459,-51.097 -113.255,-69.339 h 26.472 c 28.416,16.406 62.682,36.19 96.85,55.917 -32.102,-19.669 -64.354,-39.431 -91.262,-55.917 h 15.328 c 7.117,4.109 14.093,8.137 20.62,11.904 -6.163,-3.722 -12.847,-7.761 -19.703,-11.904 h 28.407 c 14.248,8.227 29.075,16.787 43.598,25.172 -13.69,-8.344 -27.766,-16.922 -41.303,-25.172 h 30.488 c 10.19,5.885 20.579,11.881 30.94,17.863 -9.71,-5.974 -19.457,-11.972 -29.029,-17.863 h 33.635 c 2.177,1.258 4.353,2.514 6.528,3.77 -2.043,-1.254 -4.091,-2.51 -6.141,-3.77 h 98.153 c 39.25,24.424 76.63,47.685 76.63,47.685 0.856,0.532 1.327,1.451 1.327,2.392 0,0.492 -0.129,0.991 -0.4,1.444 -0.79,1.317 -2.49,1.758 -3.82,0.989 0,0 -31.742,-18.324 -44.424,-25.647 16.785,10.209 52.493,31.929 52.493,31.929 0.87,0.529 1.352,1.456 1.352,2.406 0,0.488 -0.127,0.982 -0.394,1.432 -0.786,1.326 -2.492,1.773 -3.827,1.002 0,0 -36.298,-20.957 -53.233,-30.733 22.25,13.526 63.011,38.308 63.011,38.308 0.87,0.529 1.353,1.457 1.353,2.407 0,0.487 -0.127,0.981 -0.394,1.432 -0.786,1.326 -2.493,1.773 -3.828,1.001 0,0 -33.978,-19.617 -46.622,-26.917 10.646,6.437 41.905,25.335 41.905,25.335 0.874,0.529 1.359,1.457 1.359,2.411 0,0.486 -0.126,0.979 -0.392,1.428 -0.784,1.328 -2.493,1.777 -3.829,1.005 0,0 -57.23,-33.041 -108.011,-62.36 55.347,34.01 115.531,70.992 115.531,70.992 0.864,0.53 1.341,1.453 1.341,2.399 0,0.491 -0.128,0.987 -0.396,1.438 -0.788,1.322 -2.492,1.766 -3.824,0.997 0,0 -31.854,-18.391 -42.347,-24.449 9.612,5.803 40.044,24.173 40.044,24.173 0.875,0.528 1.36,1.457 1.36,2.411 0,0.486 -0.127,0.979 -0.391,1.428 -0.785,1.329 -2.494,1.777 -3.831,1.005 0,0 -58.373,-33.702 -110.153,-63.597 58.824,36.101 121.981,74.862 121.981,74.862 0.865,0.53 1.342,1.454 1.342,2.4 0,0.491 -0.128,0.987 -0.396,1.438 -0.022,0.036 -0.051,0.064 -0.074,0.1 h -5.305 c -9.174,-5.297 -57.26,-33.06 -92.691,-53.516"
           style="fill:#00247d;fill-opacity:1;fill-rule:nonzero;stroke:none"
           id="path19099"
           inkscape:connector-curvature="0" /><path
           d="m 26.465,289.041 c -0.846,-0.535 -1.311,-1.448 -1.311,-2.381 0,-0.496 0.132,-0.998 0.406,-1.453 0.793,-1.311 2.488,-1.748 3.815,-0.981 0,0 29.036,16.764 61.817,35.69 H 75.302 C 51.263,304.718 26.465,289.041 26.465,289.041"
           style="fill:#00247d;fill-opacity:1;fill-rule:nonzero;stroke:none"
           id="path19101"
           inkscape:connector-curvature="0" /><path
           d="m 29.184,319.208 c -0.835,-0.536 -1.293,-1.442 -1.293,-2.369 0,-0.5 0.133,-1.005 0.411,-1.462 0.795,-1.304 2.486,-1.736 3.809,-0.972 0,0 3.593,2.074 9.546,5.511 H 30.284 c -0.712,-0.458 -1.1,-0.708 -1.1,-0.708"
           style="fill:#00247d;fill-opacity:1;fill-rule:nonzero;stroke:none"
           id="path19103"
           inkscape:connector-curvature="0" /><path
           d="m 25.743,305.48 c -0.828,-0.538 -1.282,-1.439 -1.282,-2.362 0,-0.502 0.135,-1.009 0.415,-1.468 0.797,-1.3 2.485,-1.729 3.806,-0.966 0,0 14.887,8.595 18.469,10.662 -1.949,-1.21 -13.086,-8.127 -13.086,-8.127 -0.857,-0.533 -1.329,-1.451 -1.329,-2.392 0,-0.494 0.129,-0.992 0.401,-1.444 0.789,-1.318 2.489,-1.759 3.82,-0.991 0,0 19.151,11.058 37.279,21.524 H 47.98 C 34.646,311.26 25.743,305.48 25.743,305.48"
           style="fill:#00247d;fill-opacity:1;fill-rule:nonzero;stroke:none"
           id="path19105"
           inkscape:connector-curvature="0" /><path
           d="m 140.877,156.743 c -0.869,-0.531 -1.35,-1.457 -1.35,-2.406 0,-0.488 0.128,-0.983 0.395,-1.432 0.786,-1.326 2.492,-1.773 3.827,-1.002 0,0 45.133,26.057 68.448,39.518 -25.777,-15.57 -72.72,-43.928 -72.72,-43.928 -0.875,-0.527 -1.36,-1.457 -1.36,-2.41 0,-0.486 0.127,-0.98 0.392,-1.43 0.784,-1.328 2.493,-1.775 3.829,-1.004 0,0 52.625,30.381 112.104,64.721 h -30.488 c -44.446,-27.086 -83.077,-50.627 -83.077,-50.627"
           style="fill:#cf142b;fill-opacity:1;fill-rule:nonzero;stroke:none"
           id="path19107"
           inkscape:connector-curvature="0" /><path
           d="m 120.857,163.63 c -0.875,-0.527 -1.359,-1.457 -1.359,-2.41 0,-0.487 0.126,-0.979 0.391,-1.428 0.785,-1.33 2.493,-1.777 3.83,-1.006 0,0 43.678,25.217 63.568,36.701 -17.639,-10.623 -58.785,-35.402 -58.785,-35.402 -0.876,-0.529 -1.362,-1.459 -1.362,-2.414 0,-0.486 0.126,-0.979 0.39,-1.426 0.784,-1.33 2.493,-1.779 3.831,-1.008 0,0 41.782,24.123 90.298,52.133 h -28.407 c -34.064,-20.58 -72.395,-43.74 -72.395,-43.74"
           style="fill:#cf142b;fill-opacity:1;fill-rule:nonzero;stroke:none"
           id="path19109"
           inkscape:connector-curvature="0" /><path
           d="m 149.932,141.886 c -0.863,-0.532 -1.34,-1.453 -1.34,-2.401 0,-0.49 0.128,-0.986 0.397,-1.437 0.788,-1.322 2.491,-1.766 3.824,-0.996 0,0 51.245,29.586 85.443,49.33 -31.743,-19.262 -80.852,-49.063 -80.852,-49.063 -0.872,-0.527 -1.355,-1.455 -1.355,-2.406 0,-0.488 0.127,-0.982 0.393,-1.432 0.786,-1.326 2.493,-1.773 3.828,-1.003 0,0 65.052,37.558 129.718,74.892 H 256.353 C 200.067,172.735 149.932,141.886 149.932,141.886"
           style="fill:#cf142b;fill-opacity:1;fill-rule:nonzero;stroke:none"
           id="path19111"
           inkscape:connector-curvature="0" /><path
           d="m 174.534,136.278 c -0.864,-0.531 -1.342,-1.455 -1.342,-2.402 0,-0.488 0.128,-0.984 0.397,-1.436 0.787,-1.322 2.491,-1.767 3.824,-0.998 0,0 31.517,18.198 41.766,24.114 -9.619,-5.805 -40.058,-24.18 -40.058,-24.18 -0.875,-0.529 -1.36,-1.457 -1.36,-2.412 0,-0.486 0.126,-0.979 0.391,-1.428 0.785,-1.328 2.493,-1.777 3.83,-1.006 0,0 59.896,34.58 114.397,66.047 -55.34,-34.004 -115.521,-70.984 -115.521,-70.984 -0.863,-0.531 -1.341,-1.453 -1.341,-2.401 0,-0.49 0.128,-0.986 0.397,-1.437 0.788,-1.322 2.491,-1.766 3.824,-0.996 0,0 32.69,18.873 44.285,25.568 -10.648,-6.437 -41.908,-25.338 -41.908,-25.338 -0.874,-0.527 -1.359,-1.457 -1.359,-2.41 0,-0.486 0.127,-0.978 0.392,-1.428 0.785,-1.328 2.494,-1.777 3.83,-1.005 0,0 45.448,26.24 73.165,42.242 -22.235,-13.518 -62.986,-38.293 -62.986,-38.293 -0.87,-0.53 -1.352,-1.455 -1.352,-2.407 0,-0.488 0.127,-0.982 0.394,-1.431 0.785,-1.326 2.492,-1.774 3.827,-1.002 0,0 37.135,21.439 55.149,31.838 -16.785,-10.207 -52.491,-31.926 -52.491,-31.926 -0.871,-0.529 -1.352,-1.457 -1.352,-2.408 0,-0.487 0.126,-0.981 0.393,-1.432 0.787,-1.324 2.493,-1.771 3.828,-1.002 0,0 56.173,32.432 110.014,63.518 -44.713,-27.824 -93.701,-58.307 -93.701,-58.307 -0.855,-0.533 -1.327,-1.451 -1.327,-2.392 0,-0.493 0.129,-0.991 0.401,-1.444 0.789,-1.318 2.49,-1.758 3.82,-0.99 0,0 36.173,20.885 57.666,33.293 -20.846,-12.82 -56.194,-34.563 -56.194,-34.563 -0.863,-0.531 -1.34,-1.453 -1.34,-2.398 0,-0.49 0.129,-0.986 0.397,-1.438 0.788,-1.322 2.491,-1.765 3.824,-0.998 0,0 52.387,30.247 103.956,60.02 -43.595,-27.504 -89.257,-56.313 -89.257,-56.313 -0.847,-0.533 -1.313,-1.447 -1.313,-2.382 0,-0.494 0.131,-0.996 0.406,-1.452 0.792,-1.312 2.489,-1.748 3.815,-0.982 0,0 43.739,25.254 85.454,49.338 -28.302,-17.957 -61.965,-39.318 -61.965,-39.318 -0.844,-0.536 -1.307,-1.446 -1.307,-2.379 0,-0.496 0.132,-1 0.408,-1.455 0.793,-1.309 2.487,-1.745 3.813,-0.979 0,0 42.041,24.274 83.885,48.434 -19.12,-12.737 -41.418,-27.59 -41.418,-27.59 -0.812,-0.541 -1.254,-1.434 -1.254,-2.344 0,-0.508 0.137,-1.019 0.423,-1.482 0.802,-1.289 2.482,-1.711 3.798,-0.951 l 94.754,54.701 c 1.345,0.777 1.806,2.498 1.03,3.843 -0.778,1.346 -2.498,1.807 -3.844,1.03 0,0 -12.768,-7.371 -18.684,-10.785 19.156,12.759 41.472,27.623 41.472,27.623 0.812,0.541 1.254,1.433 1.254,2.345 0,0.506 -0.137,1.02 -0.424,1.481 -0.801,1.291 -2.481,1.713 -3.797,0.953 0,0 -26.267,-15.166 -43.469,-25.098 16.878,10.709 35.665,22.631 48.077,30.506 h -12.622 c -15.006,-8.662 -35.128,-20.281 -54.152,-31.264 17.171,10.832 34.662,21.87 49.557,31.264 H 404.78 c -0.477,-0.275 -0.95,-0.549 -1.41,-0.814 0.435,0.267 0.877,0.541 1.323,0.814 h -14.839 c -6.144,-3.547 -12.332,-7.119 -18.375,-10.609 5.65,3.515 11.369,7.076 17.049,10.609 H 290.375 C 233.381,172.394 174.534,136.278 174.534,136.278"
           style="fill:#cf142b;fill-opacity:1;fill-rule:nonzero;stroke:none"
           id="path19113"
           inkscape:connector-curvature="0" /><path
           d="m 83.559,193.606 c -0.868,-0.529 -1.347,-1.455 -1.347,-2.402 0,-0.49 0.128,-0.984 0.395,-1.435 0.787,-1.325 2.492,-1.77 3.826,-1 0,0 12.502,7.218 32.219,18.601 H 106.077 C 92.069,198.81 83.559,193.606 83.559,193.606"
           style="fill:#cf142b;fill-opacity:1;fill-rule:nonzero;stroke:none"
           id="path19115"
           inkscape:connector-curvature="0" /><path
           d="m 61.957,202.593 c -0.869,-0.531 -1.349,-1.457 -1.349,-2.406 0,-0.489 0.127,-0.983 0.394,-1.434 0.787,-1.324 2.493,-1.772 3.827,-1 0,0 6.3,3.637 16.659,9.617 H 69.793 c -5.017,-3.058 -7.836,-4.777 -7.836,-4.777"
           style="fill:#cf142b;fill-opacity:1;fill-rule:nonzero;stroke:none"
           id="path19117"
           inkscape:connector-curvature="0" /><path
           d="m 110.446,166.589 c -0.866,-0.529 -1.344,-1.453 -1.344,-2.401 0,-0.49 0.127,-0.986 0.396,-1.437 0.787,-1.322 2.491,-1.768 3.824,-0.998 0,0 41.463,23.939 79.013,45.617 h -15.328 c -38.853,-23.805 -66.561,-40.781 -66.561,-40.781"
           style="fill:#cf142b;fill-opacity:1;fill-rule:nonzero;stroke:none"
           id="path19119"
           inkscape:connector-curvature="0" /><path
           d="m 69.208,196.72 c -0.872,-0.53 -1.354,-1.455 -1.354,-2.407 0,-0.488 0.127,-0.982 0.394,-1.431 0.785,-1.326 2.492,-1.774 3.827,-1.004 0,0 10.195,5.887 26.834,15.492 H 86.738 c -10.851,-6.592 -17.53,-10.65 -17.53,-10.65"
           style="fill:#cf142b;fill-opacity:1;fill-rule:nonzero;stroke:none"
           id="path19121"
           inkscape:connector-curvature="0" /><path
           d="m 102.911,181.636 c -0.867,-0.532 -1.345,-1.455 -1.345,-2.403 0,-0.49 0.127,-0.986 0.395,-1.435 0.788,-1.324 2.492,-1.77 3.826,-0.998 0,0 26.413,15.248 31.965,18.455 -7.538,-4.518 -37.757,-22.623 -37.757,-22.623 -0.879,-0.528 -1.368,-1.459 -1.368,-2.416 0,-0.485 0.125,-0.977 0.389,-1.424 0.783,-1.332 2.494,-1.783 3.832,-1.01 0,0 28.452,16.426 68.571,39.588 h -26.472 c -25.43,-15.568 -42.036,-25.734 -42.036,-25.734"
           style="fill:#cf142b;fill-opacity:1;fill-rule:nonzero;stroke:none"
           id="path19123"
           inkscape:connector-curvature="0" /><path
           d="m 96.649,189.933 c -0.866,-0.53 -1.345,-1.454 -1.345,-2.403 0,-0.488 0.128,-0.984 0.396,-1.433 0.787,-1.325 2.491,-1.77 3.825,-1 0,0 15.079,8.705 38.58,22.273 h -12.96 C 107.68,196.683 96.649,189.933 96.649,189.933"
           style="fill:#cf142b;fill-opacity:1;fill-rule:nonzero;stroke:none"
           id="path19125"
           inkscape:connector-curvature="0" /><path
           d="m 124.531,236.534 13.303,-10.394 5.197,6.652"
           style="fill:#ffffff;fill-opacity:1;fill-rule:nonzero;stroke:none"
           id="path19127"
           inkscape:connector-curvature="0" /><path
           d="m 124.531,236.534 16.872,-0.59 -0.295,-8.435"
           style="fill:#ffffff;fill-opacity:1;fill-rule:nonzero;stroke:none"
           id="path19129"
           inkscape:connector-curvature="0" /><path
           d="m 140.984,247.632 -5.774,-15.863 7.932,-2.889"
           style="fill:#ffffff;fill-opacity:1;fill-rule:nonzero;stroke:none"
           id="path19131"
           inkscape:connector-curvature="0" /><path
           d="m 140.984,247.632 4.653,-16.229 -8.114,-2.326"
           style="fill:#ffffff;fill-opacity:1;fill-rule:nonzero;stroke:none"
           id="path19133"
           inkscape:connector-curvature="0" /><path
           d="m 156.623,235.413 -16.872,0.59 -0.294,-8.438"
           style="fill:#ffffff;fill-opacity:1;fill-rule:nonzero;stroke:none"
           id="path19135"
           inkscape:connector-curvature="0" /><path
           d="m 156.623,235.413 -13.996,-9.439 -4.72,6.998"
           style="fill:#ffffff;fill-opacity:1;fill-rule:nonzero;stroke:none"
           id="path19137"
           inkscape:connector-curvature="0" /><path
           d="m 149.835,216.765 -4.653,16.226 -8.114,-2.326"
           style="fill:#ffffff;fill-opacity:1;fill-rule:nonzero;stroke:none"
           id="path19139"
           inkscape:connector-curvature="0" /><path
           d="m 149.835,216.765 -13.303,10.392 5.197,6.653"
           style="fill:#ffffff;fill-opacity:1;fill-rule:nonzero;stroke:none"
           id="path19141"
           inkscape:connector-curvature="0" /><path
           d="m 130.001,217.456 13.996,9.441 -4.72,6.997"
           style="fill:#ffffff;fill-opacity:1;fill-rule:nonzero;stroke:none"
           id="path19143"
           inkscape:connector-curvature="0" /><path
           d="m 130.001,217.456 5.774,15.865 7.933,-2.888"
           style="fill:#ffffff;fill-opacity:1;fill-rule:nonzero;stroke:none"
           id="path19145"
           inkscape:connector-curvature="0" /><path
           d="m 145.052,272.076 8.946,-14.317 7.158,4.474"
           style="fill:#ffffff;fill-opacity:1;fill-rule:nonzero;stroke:none"
           id="path19147"
           inkscape:connector-curvature="0" /><path
           d="m 145.052,272.076 15.652,-6.325 -3.162,-7.826"
           style="fill:#ffffff;fill-opacity:1;fill-rule:nonzero;stroke:none"
           id="path19149"
           inkscape:connector-curvature="0" /><path
           d="m 164.308,276.877 -10.851,-12.932 6.466,-5.426"
           style="fill:#ffffff;fill-opacity:1;fill-rule:nonzero;stroke:none"
           id="path19151"
           inkscape:connector-curvature="0" /><path
           d="m 164.308,276.877 -1.178,-16.84 -8.42,0.588"
           style="fill:#ffffff;fill-opacity:1;fill-rule:nonzero;stroke:none"
           id="path19153"
           inkscape:connector-curvature="0" /><path
           d="m 174.825,260.047 -15.653,6.324 -3.162,-7.827"
           style="fill:#ffffff;fill-opacity:1;fill-rule:nonzero;stroke:none"
           id="path19155"
           inkscape:connector-curvature="0" /><path
           d="m 174.825,260.047 -16.381,-4.084 -2.042,8.19"
           style="fill:#ffffff;fill-opacity:1;fill-rule:nonzero;stroke:none"
           id="path19157"
           inkscape:connector-curvature="0" /><path
           d="m 162.068,244.845 1.177,16.84 -8.42,0.589"
           style="fill:#ffffff;fill-opacity:1;fill-rule:nonzero;stroke:none"
           id="path19159"
           inkscape:connector-curvature="0" /><path
           d="m 162.068,244.845 -8.946,14.316 7.158,4.472"
           style="fill:#ffffff;fill-opacity:1;fill-rule:nonzero;stroke:none"
           id="path19161"
           inkscape:connector-curvature="0" /><path
           d="m 143.667,252.279 16.38,4.084 -2.042,8.19"
           style="fill:#ffffff;fill-opacity:1;fill-rule:nonzero;stroke:none"
           id="path19163"
           inkscape:connector-curvature="0" /><path
           d="m 143.667,252.279 10.852,12.931 6.466,-5.425"
           style="fill:#ffffff;fill-opacity:1;fill-rule:nonzero;stroke:none"
           id="path19165"
           inkscape:connector-curvature="0" /><path
           d="m 176.491,298.457 3.509,-16.513 8.257,1.755"
           style="fill:#ffffff;fill-opacity:1;fill-rule:nonzero;stroke:none"
           id="path19167"
           inkscape:connector-curvature="0" /><path
           d="m 176.491,298.457 12.545,-11.296 -5.647,-6.273"
           style="fill:#ffffff;fill-opacity:1;fill-rule:nonzero;stroke:none"
           id="path19169"
           inkscape:connector-curvature="0" /><path
           d="m 196.228,296.382 -14.621,-8.441 4.221,-7.31"
           style="fill:#ffffff;fill-opacity:1;fill-rule:nonzero;stroke:none"
           id="path19171"
           inkscape:connector-curvature="0" /><path
           d="m 196.228,296.382 -6.867,-15.423 -7.711,3.434"
           style="fill:#ffffff;fill-opacity:1;fill-rule:nonzero;stroke:none"
           id="path19173"
           inkscape:connector-curvature="0" /><path
           d="m 200.354,276.97 -12.545,11.296 -5.649,-6.272"
           style="fill:#ffffff;fill-opacity:1;fill-rule:nonzero;stroke:none"
           id="path19175"
           inkscape:connector-curvature="0" /><path
           d="m 200.354,276.97 -16.79,1.765 0.883,8.394"
           style="fill:#ffffff;fill-opacity:1;fill-rule:nonzero;stroke:none"
           id="path19177"
           inkscape:connector-curvature="0" /><path
           d="m 183.167,267.047 6.867,15.422 -7.712,3.434"
           style="fill:#ffffff;fill-opacity:1;fill-rule:nonzero;stroke:none"
           id="path19179"
           inkscape:connector-curvature="0" /><path
           d="m 183.167,267.047 -3.51,16.513 8.257,1.755"
           style="fill:#ffffff;fill-opacity:1;fill-rule:nonzero;stroke:none"
           id="path19181"
           inkscape:connector-curvature="0" /><path
           d="m 168.418,280.327 16.79,-1.765 0.883,8.395"
           style="fill:#ffffff;fill-opacity:1;fill-rule:nonzero;stroke:none"
           id="path19183"
           inkscape:connector-curvature="0" /><path
           d="m 168.418,280.327 14.621,8.441 4.22,-7.31"
           style="fill:#ffffff;fill-opacity:1;fill-rule:nonzero;stroke:none"
           id="path19185"
           inkscape:connector-curvature="0" /><path
           d="m 215.057,312.494 -2.35,-16.718 8.359,-1.175"
           style="fill:#ffffff;fill-opacity:1;fill-rule:nonzero;stroke:none"
           id="path19187"
           inkscape:connector-curvature="0" /><path
           d="m 215.057,312.494 7.925,-14.907 -7.453,-3.962"
           style="fill:#ffffff;fill-opacity:1;fill-rule:nonzero;stroke:none"
           id="path19189"
           inkscape:connector-curvature="0" /><path
           d="m 232.894,303.793 -16.625,-2.931 1.465,-8.313"
           style="fill:#ffffff;fill-opacity:1;fill-rule:nonzero;stroke:none"
           id="path19191"
           inkscape:connector-curvature="0" /><path
           d="m 232.894,303.793 -11.727,-12.143 -6.072,5.863"
           style="fill:#ffffff;fill-opacity:1;fill-rule:nonzero;stroke:none"
           id="path19193"
           inkscape:connector-curvature="0" /><path
           d="m 230.131,284.141 -7.925,14.905 -7.453,-3.963"
           style="fill:#ffffff;fill-opacity:1;fill-rule:nonzero;stroke:none"
           id="path19195"
           inkscape:connector-curvature="0" /><path
           d="m 230.131,284.141 -15.173,7.401 3.701,7.586"
           style="fill:#ffffff;fill-opacity:1;fill-rule:nonzero;stroke:none"
           id="path19197"
           inkscape:connector-curvature="0" /><path
           d="m 210.587,280.695 11.727,12.143 -6.071,5.864"
           style="fill:#ffffff;fill-opacity:1;fill-rule:nonzero;stroke:none"
           id="path19199"
           inkscape:connector-curvature="0" /><path
           d="m 210.587,280.695 2.35,16.718 8.358,-1.175"
           style="fill:#ffffff;fill-opacity:1;fill-rule:nonzero;stroke:none"
           id="path19201"
           inkscape:connector-curvature="0" /><path
           d="m 201.271,298.217 15.173,-7.4 3.7,7.587"
           style="fill:#ffffff;fill-opacity:1;fill-rule:nonzero;stroke:none"
           id="path19203"
           inkscape:connector-curvature="0" /><path
           d="m 201.271,298.217 16.625,2.932 1.466,-8.313"
           style="fill:#ffffff;fill-opacity:1;fill-rule:nonzero;stroke:none"
           id="path19205"
           inkscape:connector-curvature="0" /><path
           d="m 256.097,312.494 -7.925,-14.907 7.452,-3.962"
           style="fill:#ffffff;fill-opacity:1;fill-rule:nonzero;stroke:none"
           id="path19207"
           inkscape:connector-curvature="0" /><path
           d="m 256.097,312.494 2.349,-16.718 -8.358,-1.175"
           style="fill:#ffffff;fill-opacity:1;fill-rule:nonzero;stroke:none"
           id="path19209"
           inkscape:connector-curvature="0" /><path
           d="m 269.884,298.217 -16.625,2.932 -1.467,-8.313"
           style="fill:#ffffff;fill-opacity:1;fill-rule:nonzero;stroke:none"
           id="path19211"
           inkscape:connector-curvature="0" /><path
           d="m 269.884,298.217 -15.174,-7.4 -3.7,7.587"
           style="fill:#ffffff;fill-opacity:1;fill-rule:nonzero;stroke:none"
           id="path19213"
           inkscape:connector-curvature="0" /><path
           d="m 260.566,280.695 -2.349,16.718 -8.359,-1.175"
           style="fill:#ffffff;fill-opacity:1;fill-rule:nonzero;stroke:none"
           id="path19215"
           inkscape:connector-curvature="0" /><path
           d="m 260.566,280.695 -11.727,12.143 6.072,5.864"
           style="fill:#ffffff;fill-opacity:1;fill-rule:nonzero;stroke:none"
           id="path19217"
           inkscape:connector-curvature="0" /><path
           d="m 241.022,284.141 15.173,7.401 -3.7,7.586"
           style="fill:#ffffff;fill-opacity:1;fill-rule:nonzero;stroke:none"
           id="path19219"
           inkscape:connector-curvature="0" /><path
           d="m 241.022,284.141 7.926,14.905 7.452,-3.963"
           style="fill:#ffffff;fill-opacity:1;fill-rule:nonzero;stroke:none"
           id="path19221"
           inkscape:connector-curvature="0" /><path
           d="m 238.26,303.793 11.727,-12.143 6.073,5.863"
           style="fill:#ffffff;fill-opacity:1;fill-rule:nonzero;stroke:none"
           id="path19223"
           inkscape:connector-curvature="0" /><path
           d="m 238.26,303.793 16.626,-2.931 -1.466,-8.313"
           style="fill:#ffffff;fill-opacity:1;fill-rule:nonzero;stroke:none"
           id="path19225"
           inkscape:connector-curvature="0" /><path
           d="m 294.663,298.457 -12.546,-11.296 5.648,-6.274"
           style="fill:#ffffff;fill-opacity:1;fill-rule:nonzero;stroke:none"
           id="path19227"
           inkscape:connector-curvature="0" /><path
           d="m 294.663,298.457 -3.51,-16.513 -8.257,1.755"
           style="fill:#ffffff;fill-opacity:1;fill-rule:nonzero;stroke:none"
           id="path19229"
           inkscape:connector-curvature="0" /><path
           d="m 302.735,280.327 -14.621,8.44 -4.22,-7.309"
           style="fill:#ffffff;fill-opacity:1;fill-rule:nonzero;stroke:none"
           id="path19231"
           inkscape:connector-curvature="0" /><path
           d="m 302.735,280.327 -16.789,-1.765 -0.883,8.395"
           style="fill:#ffffff;fill-opacity:1;fill-rule:nonzero;stroke:none"
           id="path19233"
           inkscape:connector-curvature="0" /><path
           d="m 287.987,267.047 3.51,16.513 -8.257,1.755"
           style="fill:#ffffff;fill-opacity:1;fill-rule:nonzero;stroke:none"
           id="path19235"
           inkscape:connector-curvature="0" /><path
           d="m 287.987,267.047 -6.867,15.422 7.711,3.434"
           style="fill:#ffffff;fill-opacity:1;fill-rule:nonzero;stroke:none"
           id="path19237"
           inkscape:connector-curvature="0" /><path
           d="m 270.8,276.97 16.789,1.765 -0.883,8.394"
           style="fill:#ffffff;fill-opacity:1;fill-rule:nonzero;stroke:none"
           id="path19239"
           inkscape:connector-curvature="0" /><path
           d="m 270.8,276.97 12.545,11.296 5.648,-6.272"
           style="fill:#ffffff;fill-opacity:1;fill-rule:nonzero;stroke:none"
           id="path19241"
           inkscape:connector-curvature="0" /><path
           d="m 274.926,296.382 6.866,-15.423 7.711,3.434"
           style="fill:#ffffff;fill-opacity:1;fill-rule:nonzero;stroke:none"
           id="path19243"
           inkscape:connector-curvature="0" /><path
           d="m 274.926,296.382 14.62,-8.441 -4.221,-7.31"
           style="fill:#ffffff;fill-opacity:1;fill-rule:nonzero;stroke:none"
           id="path19245"
           inkscape:connector-curvature="0" /><path
           d="m 326.102,272.076 -15.653,-6.325 3.162,-7.826"
           style="fill:#ffffff;fill-opacity:1;fill-rule:nonzero;stroke:none"
           id="path19247"
           inkscape:connector-curvature="0" /><path
           d="m 326.102,272.076 -8.946,-14.317 -7.158,4.474"
           style="fill:#ffffff;fill-opacity:1;fill-rule:nonzero;stroke:none"
           id="path19249"
           inkscape:connector-curvature="0" /><path
           d="m 327.486,252.279 -10.851,12.931 -6.466,-5.425"
           style="fill:#ffffff;fill-opacity:1;fill-rule:nonzero;stroke:none"
           id="path19251"
           inkscape:connector-curvature="0" /><path
           d="m 327.486,252.279 -16.38,4.084 2.042,8.19"
           style="fill:#ffffff;fill-opacity:1;fill-rule:nonzero;stroke:none"
           id="path19253"
           inkscape:connector-curvature="0" /><path
           d="m 309.086,244.845 8.946,14.316 -7.158,4.473"
           style="fill:#ffffff;fill-opacity:1;fill-rule:nonzero;stroke:none"
           id="path19255"
           inkscape:connector-curvature="0" /><path
           d="m 309.086,244.845 -1.178,16.84 8.42,0.589"
           style="fill:#ffffff;fill-opacity:1;fill-rule:nonzero;stroke:none"
           id="path19257"
           inkscape:connector-curvature="0" /><path
           d="m 296.329,260.047 16.381,-4.084 2.042,8.19"
           style="fill:#ffffff;fill-opacity:1;fill-rule:nonzero;stroke:none"
           id="path19259"
           inkscape:connector-curvature="0" /><path
           d="m 296.329,260.047 15.652,6.324 3.163,-7.827"
           style="fill:#ffffff;fill-opacity:1;fill-rule:nonzero;stroke:none"
           id="path19261"
           inkscape:connector-curvature="0" /><path
           d="m 306.846,276.877 1.177,-16.84 8.42,0.588"
           style="fill:#ffffff;fill-opacity:1;fill-rule:nonzero;stroke:none"
           id="path19263"
           inkscape:connector-curvature="0" /><path
           d="m 306.846,276.877 10.851,-12.932 -6.467,-5.426"
           style="fill:#ffffff;fill-opacity:1;fill-rule:nonzero;stroke:none"
           id="path19265"
           inkscape:connector-curvature="0" /><path
           d="m 346.623,236.534 -16.872,-0.59 0.294,-8.435"
           style="fill:#ffffff;fill-opacity:1;fill-rule:nonzero;stroke:none"
           id="path19267"
           inkscape:connector-curvature="0" /><path
           d="m 346.623,236.534 -13.304,-10.394 -5.197,6.652"
           style="fill:#ffffff;fill-opacity:1;fill-rule:nonzero;stroke:none"
           id="path19269"
           inkscape:connector-curvature="0" /><path
           d="m 341.152,217.456 -5.774,15.865 -7.932,-2.888"
           style="fill:#ffffff;fill-opacity:1;fill-rule:nonzero;stroke:none"
           id="path19271"
           inkscape:connector-curvature="0" /><path
           d="m 341.152,217.456 -13.996,9.441 4.72,6.997"
           style="fill:#ffffff;fill-opacity:1;fill-rule:nonzero;stroke:none"
           id="path19273"
           inkscape:connector-curvature="0" /><path
           d="m 321.318,216.765 13.303,10.392 -5.196,6.653"
           style="fill:#ffffff;fill-opacity:1;fill-rule:nonzero;stroke:none"
           id="path19275"
           inkscape:connector-curvature="0" /><path
           d="m 321.318,216.765 4.654,16.226 8.114,-2.326"
           style="fill:#ffffff;fill-opacity:1;fill-rule:nonzero;stroke:none"
           id="path19277"
           inkscape:connector-curvature="0" /><path
           d="m 314.531,235.413 13.995,-9.439 4.72,6.998"
           style="fill:#ffffff;fill-opacity:1;fill-rule:nonzero;stroke:none"
           id="path19279"
           inkscape:connector-curvature="0" /><path
           d="m 314.531,235.413 16.871,0.59 0.295,-8.438"
           style="fill:#ffffff;fill-opacity:1;fill-rule:nonzero;stroke:none"
           id="path19281"
           inkscape:connector-curvature="0" /><path
           d="m 330.17,247.632 -4.654,-16.229 8.114,-2.326"
           style="fill:#ffffff;fill-opacity:1;fill-rule:nonzero;stroke:none"
           id="path19283"
           inkscape:connector-curvature="0" /><path
           d="m 330.17,247.632 5.773,-15.863 -7.931,-2.889"
           style="fill:#ffffff;fill-opacity:1;fill-rule:nonzero;stroke:none"
           id="path19285"
           inkscape:connector-curvature="0" /></g></g></g></svg>